<?xml version="1.0" encoding="UTF-8" standalone="no"?>
<!-- Created with Inkscape (http://www.inkscape.org/) -->

<svg
   version="1.1"
   id="svg23672"
   xml:space="preserve"
   width="800"
   height="800"
   viewBox="0 0 800 800"
   sodipodi:docname="eagle-flight-publicdomainvectors.org.svg"
   inkscape:version="1.1.2 (b8e25be833, 2022-02-05)"
   xmlns:inkscape="http://www.inkscape.org/namespaces/inkscape"
   xmlns:sodipodi="http://sodipodi.sourceforge.net/DTD/sodipodi-0.dtd"
   xmlns="http://www.w3.org/2000/svg"
   xmlns:svg="http://www.w3.org/2000/svg"><defs
     id="defs23676"><clipPath
       clipPathUnits="userSpaceOnUse"
       id="clipPath23686"><path
         d="M 0,600 H 600 V 0 H 0 Z"
         id="path23684" /></clipPath></defs><sodipodi:namedview
     id="namedview23674"
     pagecolor="#ffffff"
     bordercolor="#666666"
     borderopacity="1.0"
     inkscape:pageshadow="2"
     inkscape:pageopacity="0.0"
     inkscape:pagecheckerboard="0"
     showgrid="false"
     inkscape:zoom="1.03875"
     inkscape:cx="400"
     inkscape:cy="400"
     inkscape:window-width="1920"
     inkscape:window-height="1018"
     inkscape:window-x="-8"
     inkscape:window-y="-8"
     inkscape:window-maximized="1"
     inkscape:current-layer="g23678" /><g
     id="g23678"
     inkscape:groupmode="layer"
     inkscape:label="eagle-flight-publicdomainvectors.org"
     transform="matrix(1.3333333,0,0,-1.3333333,0,800)"><g
       id="g23680"><g
         id="g23682"
         clip-path="url(#clipPath23686)"><path
           d="m 566.979,490.101 c -3.536,0.956 -3.888,9.842 -2.971,12.23 3.907,10.18 -7.113,0.877 -16.862,-11.264 -10.418,-12.962 -33.168,-32.048 -60.965,-52.213 l 1.028,-34.265 z"
           style="fill:#df2200;fill-opacity:1;fill-rule:nonzero;stroke:none"
           id="path23688" /><path
           d="m 542.144,406.771 c 1.461,1.188 2.422,2.304 2.422,3.164 0,2.565 -2.196,5.639 0.557,7.919 2.746,2.281 4.992,6.918 4.992,10.311 0,3.512 4.388,8.435 10.173,11.431 6.694,3.463 16.484,10.012 15.817,14.045 -0.556,3.372 -4.672,6.835 -1.008,10.964 4.741,5.347 5.458,7.926 2.496,8.962 -2.294,0.8 -1.502,13.802 -1.502,17.48 0,3.817 -5.43,-1.912 -9.094,-0.952 -0.006,10e-4 -0.012,0.004 -0.018,0.006 l -79.77,-85.512 z"
           style="fill:#dc2b00;fill-opacity:1;fill-rule:nonzero;stroke:none"
           id="path23690" /><path
           d="m 516.338,389.313 c 5.659,5.118 11.402,9.456 14.768,10.985 3.296,1.492 8.148,4.123 11.038,6.473 l -54.935,-2.182 z"
           style="fill:#df5e00;fill-opacity:1;fill-rule:nonzero;stroke:none"
           id="path23692" /><path
           d="m 492.001,364.188 c 5.193,5.385 10.775,11.277 16.627,17.56 2.377,2.554 5.034,5.147 7.71,7.565 l -29.129,15.276 z"
           style="fill:#e88200;fill-opacity:1;fill-rule:nonzero;stroke:none"
           id="path23694" /><path
           d="m 408.254,151.923 c 4.883,1.108 7.882,3.936 8.206,7.272 l -8.505,-5.797 z"
           style="fill:#8bebdb;fill-opacity:1;fill-rule:nonzero;stroke:none"
           id="path23696" /><path
           d="m 453.507,337.973 8.496,-3.038 c 6.154,5.191 16.821,15.587 29.998,29.253 l -4.792,40.401 z"
           style="fill:#f38900;fill-opacity:1;fill-rule:nonzero;stroke:none"
           id="path23698" /><path
           d="m 451.886,415.134 c -3.027,-2 -6.073,-3.99 -9.134,-5.968 l 2.066,-16.953 z"
           style="fill:#ef3500;fill-opacity:1;fill-rule:nonzero;stroke:none"
           id="path23700" /><path
           d="m 487.209,404.589 -1.028,34.265 c -10.812,-7.842 -22.386,-15.848 -34.295,-23.72 l -7.068,-22.921 z"
           style="fill:#f43800;fill-opacity:1;fill-rule:nonzero;stroke:none"
           id="path23702" /><path
           d="m 444.818,392.213 8.689,-54.24 33.702,66.616 z"
           style="fill:#f77700;fill-opacity:1;fill-rule:nonzero;stroke:none"
           id="path23704" /><path
           d="m 454.12,325.358 c 1.48,0.383 2.522,0.93 2.522,1.685 0,1.836 -1.746,4.221 -0.071,4.221 0.73,0 2.606,1.287 5.432,3.671 l -8.496,3.038 z"
           style="fill:#f2da4a;fill-opacity:1;fill-rule:nonzero;stroke:none"
           id="path23706" /><path
           d="m 442.752,409.166 c -5.639,-3.643 -11.326,-7.238 -17.02,-10.759 l 19.086,-6.194 z"
           style="fill:#fb6100;fill-opacity:1;fill-rule:nonzero;stroke:none"
           id="path23708" /><path
           d="m 416.46,159.195 c 0.221,2.261 -0.786,4.755 -3.268,7.105 -1.234,1.164 -6.062,3.695 -12.903,6.866 l 7.666,-19.768 z"
           style="fill:#c5f5c1;fill-opacity:1;fill-rule:nonzero;stroke:none"
           id="path23710" /><path
           d="m 398.703,285.298 c 1.078,3.24 3.935,4.874 6.682,3.817 2.641,-1.008 5.68,0.473 6.764,3.296 1.085,2.816 4.096,4.311 6.689,3.317 0.933,-0.358 1.799,-0.433 2.532,-0.277 l 2.244,2.97 c 0.001,0.004 0.001,0.007 0.001,0.011 0.034,2.489 3.782,8.051 8.329,12.362 4.547,4.318 8.268,9.185 8.268,10.826 0,0.989 1.091,1.869 2.76,2.413 l 10.535,13.94 -104.134,18.697 c -0.419,-0.2 -0.836,-0.399 -1.252,-0.597 l 22.048,-94.989 c 8.159,4.271 27.076,19.836 28.534,24.214"
           style="fill:#ffd100;fill-opacity:1;fill-rule:nonzero;stroke:none"
           id="path23712" /><path
           d="m 423.614,298.421 -2.244,-2.97 c 1.333,0.285 2.223,1.351 2.244,2.97"
           style="fill:#f9ed2d;fill-opacity:1;fill-rule:nonzero;stroke:none"
           id="path23714" /><path
           d="m 442.972,324.033 c 1.097,0.358 2.446,0.57 3.9,0.57 2.151,0 5.144,0.21 7.248,0.755 l -0.613,12.615 z"
           style="fill:#f9ed2d;fill-opacity:1;fill-rule:nonzero;stroke:none"
           id="path23716" /><path
           d="m 444.818,392.213 -88.675,-32.289 c -2.321,-1.122 -4.577,-2.207 -6.77,-3.254 l 104.134,-18.697 z"
           style="fill:#fd9d00;fill-opacity:1;fill-rule:nonzero;stroke:none"
           id="path23718" /><path
           d="m 425.732,398.407 c -22.025,-13.616 -44.135,-26.093 -63.789,-35.668 -1.978,-0.964 -3.91,-1.901 -5.8,-2.815 l 88.675,32.289 z"
           style="fill:#ff9300;fill-opacity:1;fill-rule:nonzero;stroke:none"
           id="path23720" /><path
           d="m 407.955,153.398 -7.666,19.768 c -7.259,3.364 -16.784,7.447 -26.685,11.378 -0.956,0.379 -1.899,0.758 -2.838,1.137 l -2.832,-26.491 z"
           style="fill:#cbf387;fill-opacity:1;fill-rule:nonzero;stroke:none"
           id="path23722" /><path
           d="m 353.935,97.966 c 8.315,-4.415 16.338,-1.937 16.338,5.062 0,0.573 0.114,1.116 0.325,1.62 l -16.619,-2.594 z"
           style="fill:#8bcfa3;fill-opacity:1;fill-rule:nonzero;stroke:none"
           id="path23724" /><path
           d="m 367.934,159.19 38.795,-37.952 c 3.248,3.648 1.68,10.303 -4.925,18.96 l -8.559,11.223 h 10.27 c 1.728,0 3.313,0.178 4.739,0.502 l -0.299,1.475 z"
           style="fill:#96eaa2;fill-opacity:1;fill-rule:nonzero;stroke:none"
           id="path23726" /><path
           d="m 353.979,102.054 16.619,2.594 c 0.858,2.063 3.345,3.477 6.44,3.477 3.72,0 7.627,2.246 8.684,5 1.071,2.78 6.021,4.991 11.194,4.991 4.729,0 8.012,1.099 9.813,3.122 l -38.795,37.952 z"
           style="fill:#9ae292;fill-opacity:1;fill-rule:nonzero;stroke:none"
           id="path23728" /><path
           d="m 321.026,251.026 7.322,9.868 9.448,-5.583 c 7.767,-4.589 9.935,-4.785 12.216,-1.092 2.204,3.552 3.316,3.615 5.367,0.299 2.017,-3.268 3.394,-3.087 6.244,0.806 2.01,2.746 4.401,4.854 5.319,4.687 0.6,-0.114 1.734,0.291 3.227,1.073 l -22.048,94.989 c -0.353,-0.169 -0.706,-0.337 -1.058,-0.503 L 287.1,260.563 Z"
           style="fill:#ffce00;fill-opacity:1;fill-rule:nonzero;stroke:none"
           id="path23730" /><path
           d="M 261.823,162.877 367.934,159.19 333,203 c -15.969,8.545 -25.721,16.071 -26.7,21.078 -0.309,1.586 0.794,4.891 2.802,8.893 L 287.1,260.563 Z"
           style="fill:#f0d03c;fill-opacity:1;fill-rule:nonzero;stroke:none"
           id="path23732" /><path
           d="m 309.102,232.971 c 1.89,3.768 4.584,8.156 7.669,12.32 l 4.255,5.735 -33.926,9.537 z"
           style="fill:#f6e63a;fill-opacity:1;fill-rule:nonzero;stroke:none"
           id="path23734" /><path
           d="M 370.766,185.681 C 356.066,191.609 343.251,197.515 333,203 l 34.934,-43.81 z"
           style="fill:#f6e63a;fill-opacity:1;fill-rule:nonzero;stroke:none"
           id="path23736" /><path
           d="m 367.934,159.19 -106.111,3.687 92.156,-60.823 z"
           style="fill:#c7df6f;fill-opacity:1;fill-rule:nonzero;stroke:none"
           id="path23738" /><path
           d="m 287.1,260.563 59.963,95.007 c -46.155,-21.933 -63.686,-26.788 -74.232,-17.727 l -34.705,-8.822 z"
           style="fill:#feb200;fill-opacity:1;fill-rule:nonzero;stroke:none"
           id="path23740" /><path
           d="m 320.949,80.163 -11.947,-7.919 c 6.273,-1.165 8.644,0.349 11.947,7.919"
           style="fill:#b5b995;fill-opacity:1;fill-rule:nonzero;stroke:none"
           id="path23742" /><path
           d="m 331.059,85.967 c 7.258,-7.259 15.901,-3.352 15.901,7.181 0,1.879 0.046,3.326 0.207,4.391 L 330.516,86.503 c 0.175,-0.172 0.355,-0.349 0.543,-0.536"
           style="fill:#b5b995;fill-opacity:1;fill-rule:nonzero;stroke:none"
           id="path23744" /><path
           d="m 350.352,99.649 c 0.914,-0.309 2.067,-0.873 3.526,-1.654 0.018,-0.011 0.037,-0.019 0.057,-0.029 l 0.044,4.088 z"
           style="fill:#b5b995;fill-opacity:1;fill-rule:nonzero;stroke:none"
           id="path23746" /><path
           d="M 242.075,106.267 252.438,75.05 c 0.899,-0.159 1.892,-0.236 2.995,-0.236 4.546,0 8.266,-1.69 8.266,-3.748 0,-2.378 3.609,-3.024 9.86,-1.773 5.422,1.085 10.762,0.522 11.854,-1.251 v 0.007 c 2.927,-4.735 11.534,-3.914 13.53,1.286 1.05,2.747 4.902,3.894 9.88,2.941 0.061,-0.011 0.118,-0.021 0.179,-0.032 l 11.947,7.919 c 0.124,0.283 0.249,0.572 0.375,0.874 3.848,9.159 4.703,9.857 9.192,5.466 l 16.651,11.036 c 0.338,2.236 1.186,2.788 3.185,2.11 l 3.627,2.405 z"
           style="fill:#c2b266;fill-opacity:1;fill-rule:nonzero;stroke:none"
           id="path23748" /><path
           d="m 353.979,102.054 -92.156,60.823 -19.748,-56.61 z"
           style="fill:#d3bf53;fill-opacity:1;fill-rule:nonzero;stroke:none"
           id="path23750" /><path
           d="m 272.831,337.843 c -2.941,2.527 -5.34,6.136 -7.665,10.761 -3.032,6.031 -7.227,11.514 -11.594,15.563 l -15.446,-35.146 z"
           style="fill:#fe9400;fill-opacity:1;fill-rule:nonzero;stroke:none"
           id="path23752" /><path
           d="m 287.1,260.563 -95.841,0.524 c 0.173,-0.336 0.336,-0.684 0.488,-1.042 l 14.426,-20.003 c 1.366,1.283 2.797,2.826 4.274,4.638 l 9.06,11.103 4.018,-12.181 c 2.211,-6.696 3.136,-14.977 2.051,-18.398 -0.351,-1.101 -1.93,-3.205 -4.398,-5.969 l 40.645,-56.358 z"
           style="fill:#fb9b00;fill-opacity:1;fill-rule:nonzero;stroke:none"
           id="path23754" /><path
           d="m 238.126,329.021 -46.98,-67.715 c 0.038,-0.073 0.075,-0.146 0.113,-0.219 l 95.841,-0.524 z"
           style="fill:#ffa300;fill-opacity:1;fill-rule:nonzero;stroke:none"
           id="path23756" /><path
           d="m 253.572,364.167 c -4.585,4.252 -9.361,6.921 -13.185,6.964 -8.094,0.091 -29.975,-6.675 -29.975,-9.261 0,-1.314 3.373,-3.866 7.496,-5.674 5.479,-2.405 7.182,-5.527 6.333,-11.611 l 13.885,-15.564 z"
           style="fill:#fd7700;fill-opacity:1;fill-rule:nonzero;stroke:none"
           id="path23758" /><path
           d="m 221.178,219.235 c -5.197,-5.817 -14.34,-14.564 -24.31,-23.073 -19.204,-16.399 -25.097,-22.671 -25.762,-28.639 l 90.717,-4.646 z"
           style="fill:#f56500;fill-opacity:1;fill-rule:nonzero;stroke:none"
           id="path23760" /><path
           d="m 193.01,247.697 c -1.937,-13.224 4.205,-16.076 13.163,-7.655 l -14.426,20.003 c 1.421,-3.339 1.957,-7.623 1.263,-12.348"
           style="fill:#f56500;fill-opacity:1;fill-rule:nonzero;stroke:none"
           id="path23762" /><path
           d="m 228.317,86.165 c 2.492,-0.394 5.436,0.202 8.634,1.915 4.986,2.663 6.446,1.766 8.15,-5.013 1.232,-4.912 3.333,-7.305 7.337,-8.017 l -10.363,31.217 z"
           style="fill:#bc5024;fill-opacity:1;fill-rule:nonzero;stroke:none"
           id="path23764" /><path
           d="m 261.823,162.877 -90.717,4.646 c -0.097,-0.883 -0.082,-1.76 0.023,-2.663 0.66,-5.701 2.892,-8.322 6.813,-8.009 4.29,0.34 5.828,-2.031 5.828,-8.962 0,-0.187 0.003,-0.369 0.007,-0.553 l 58.298,-41.069 z"
           style="fill:#e07000;fill-opacity:1;fill-rule:nonzero;stroke:none"
           id="path23766" /><path
           d="m 162.031,321.121 28.023,-58.083 c 0.396,-0.534 0.76,-1.112 1.092,-1.732 l 46.98,67.715 z"
           style="fill:#ff8800;fill-opacity:1;fill-rule:nonzero;stroke:none"
           id="path23768" /><path
           d="m 238.126,329.021 -13.885,15.564 c -2.343,-16.881 -11.291,-20.539 -28.387,-11.625 -7.147,3.727 -18.361,7.38 -33.296,10.878 l -0.527,-22.717 z"
           style="fill:#fd7400;fill-opacity:1;fill-rule:nonzero;stroke:none"
           id="path23770" /><path
           d="m 220.378,100.64 c 0.018,-0.643 0.025,-1.337 0.025,-2.096 0,-7.194 3.117,-11.622 7.914,-12.379 l 13.758,20.102 z"
           style="fill:#c22c00;fill-opacity:1;fill-rule:nonzero;stroke:none"
           id="path23772" /><path
           d="m 183.777,147.336 c 0.18,-8.666 4.571,-14.06 11.653,-14.25 1.828,-0.027 2.871,-3.357 2.307,-7.391 -1.724,-12.369 5.355,-21.798 14.616,-19.474 6.503,1.634 7.84,1.048 8.025,-5.581 l 21.697,5.627 z"
           style="fill:#d54200;fill-opacity:1;fill-rule:nonzero;stroke:none"
           id="path23774" /><path
           d="m 162.031,321.121 0.527,22.717 c -10.99,2.573 -23.996,5.061 -38.88,7.433 l -14.307,-21.46 z"
           style="fill:#fa6200;fill-opacity:1;fill-rule:nonzero;stroke:none"
           id="path23776" /><path
           d="m 139.659,303.379 c 30.921,-15.845 32.794,-17.761 31.581,-21.391 -0.737,-2.224 1.328,-4.04 4.596,-4.04 4.617,0 5.048,-0.889 1.939,-3.997 -5.804,-5.805 -4.894,-8.941 2.066,-7.12 4.146,1.086 7.771,-0.498 10.213,-3.793 l -28.023,58.083 z"
           style="fill:#ff7200;fill-opacity:1;fill-rule:nonzero;stroke:none"
           id="path23778" /><path
           d="m 109.371,329.811 -1.512,-10.252 c 2.241,-1.163 4.535,-2.339 6.862,-3.515 9.907,-5.01 18.128,-9.175 24.938,-12.665 l 22.372,17.742 z"
           style="fill:#fa6800;fill-opacity:1;fill-rule:nonzero;stroke:none"
           id="path23780" /><path
           d="m 123.678,351.271 c -3.008,0.478 -6.091,0.952 -9.25,1.42 -0.914,0.137 -1.835,0.279 -2.761,0.424 l -2.296,-23.304 z"
           style="fill:#f64d00;fill-opacity:1;fill-rule:nonzero;stroke:none"
           id="path23782" /><path
           d="m 62.428,349.278 c 5.375,-3.427 10.923,-8.051 12.328,-10.276 0.93,-1.475 9.139,-6.507 20.555,-12.759 l 14.06,3.568 -77.728,47.06 c 8.221,-10.11 19.185,-20.189 30.785,-27.593"
           style="fill:#e94c00;fill-opacity:1;fill-rule:nonzero;stroke:none"
           id="path23784" /><path
           d="m 17.283,407.056 5.858,1.692 c -2.91,3.426 -5.542,3.067 -5.858,-1.692"
           style="fill:#dd1c00;fill-opacity:1;fill-rule:nonzero;stroke:none"
           id="path23786" /><path
           d="m 111.667,353.115 c -18.207,2.872 -38.241,7.618 -45.526,10.841 -14.219,6.292 -33.221,25.113 -39.694,39.318 -1.067,2.346 -2.207,4.178 -3.306,5.474 l -5.858,-1.692 c -0.02,-0.315 -0.035,-0.641 -0.035,-0.993 0,-7.639 5.645,-18.433 14.395,-29.192 l 77.728,-47.06 z"
           style="fill:#ed4100;fill-opacity:1;fill-rule:nonzero;stroke:none"
           id="path23788" /><path
           d="m 95.311,326.243 c 3.867,-2.118 8.102,-4.377 12.548,-6.684 l 1.512,10.252 z"
           style="fill:#f55e00;fill-opacity:1;fill-rule:nonzero;stroke:none"
           id="path23790" /></g></g></g></svg>
